<svg aria-hidden="true" style="position: absolute; width: 0; height: 0; overflow: hidden;" version="1.1" xmlns="http://www.w3.org/2000/svg" xmlns:xlink="http://www.w3.org/1999/xlink">
<defs>
<symbol id="icon-pencil" viewBox="0 0 32 32">
<path d="M0 31.479c0 0.276 0.224 0.5 0.5 0.5h31.111c0.067 0 0.132-0.013 0.193-0.039s0.116-0.063 0.162-0.109c0.001-0.001 0.002-0.001 0.003-0.002 0.003-0.003 0.003-0.009 0.007-0.012 0.051-0.055 0.084-0.122 0.107-0.195 0.007-0.023 0.010-0.045 0.014-0.069 0.004-0.025 0.015-0.047 0.015-0.073 0-0.040-0.014-0.075-0.023-0.112-0.003-0.014 0.003-0.028-0.002-0.042l-3.16-9.715c-0.024-0.075-0.066-0.144-0.122-0.199l-17.117-17.118c-0.018-0.028-0.031-0.058-0.055-0.083l-3.739-3.739c-0.607-0.607-1.595-0.607-2.203 0l-5.235 5.235c-0.294 0.294-0.456 0.685-0.456 1.101s0.162 0.808 0.456 1.102l3.656 3.656c0.018 0.027 0.030 0.058 0.054 0.082l17.090 17.205c0.059 0.060 0.131 0.103 0.212 0.127l6.713 2h-27.681c-0.276-0.001-0.5 0.223-0.5 0.499zM6.362 10.161l15.687 15.486-0.577 2.002-16.245-16.353 1.135-1.135zM22.816 25l-15.748-15.545 2.437-2.437 15.607 15.648v2.334h-2.296zM25.735 21.875l-15.523-15.564 1.039-1.039 16.211 16.211-1.727 0.392zM22.988 26h2.624c0.276 0 0.5-0.224 0.5-0.5v-2.685l2.007-0.456 2.723 8.37-8.488-2.529 0.634-2.2zM1 6.808c0-0.149 0.058-0.288 0.163-0.394l5.235-5.235c0.217-0.217 0.57-0.218 0.789 0l3.372 3.372-6.023 6.023-3.372-3.372c-0.106-0.105-0.164-0.245-0.164-0.394z"></path>
</symbol>
<symbol id="icon-play" viewBox="0 0 32 32">
<path d="M30.662 5.003c-4.488-0.645-9.448-1.003-14.662-1.003s-10.174 0.358-14.662 1.003c-0.86 3.366-1.338 7.086-1.338 10.997s0.477 7.63 1.338 10.997c4.489 0.645 9.448 1.003 14.662 1.003s10.174-0.358 14.662-1.003c0.86-3.366 1.338-7.086 1.338-10.997s-0.477-7.63-1.338-10.997zM12 22v-12l10 6-10 6z"></path>
</symbol>
<symbol id="icon-stack" viewBox="0 0 32 32">
<path d="M32 10l-16-8-16 8 16 8 16-8zM16 4.655l10.689 5.345-10.689 5.345-10.689-5.345 10.689-5.345zM28.795 14.398l3.205 1.602-16 8-16-8 3.205-1.602 12.795 6.398zM28.795 20.398l3.205 1.602-16 8-16-8 3.205-1.602 12.795 6.398z"></path>
</symbol>
<symbol id="icon-user-check" viewBox="0 0 32 32">
<path d="M30 19l-9 9-3-3-2 2 5 5 11-11z"></path>
<path d="M14 24h10v-3.598c-2.101-1.225-4.885-2.066-8-2.321v-1.649c2.203-1.242 4-4.337 4-7.432 0-4.971 0-9-6-9s-6 4.029-6 9c0 3.096 1.797 6.191 4 7.432v1.649c-6.784 0.555-12 3.888-12 7.918h14v-2z"></path>
</symbol>
<symbol id="icon-sphere" viewBox="0 0 32 32">
<path d="M15 2c-8.284 0-15 6.716-15 15s6.716 15 15 15c8.284 0 15-6.716 15-15s-6.716-15-15-15zM23.487 22c0.268-1.264 0.437-2.606 0.492-4h3.983c-0.104 1.381-0.426 2.722-0.959 4h-3.516zM6.513 12c-0.268 1.264-0.437 2.606-0.492 4h-3.983c0.104-1.381 0.426-2.722 0.959-4h3.516zM21.439 12c0.3 1.28 0.481 2.62 0.54 4h-5.979v-4h5.439zM16 10v-5.854c0.456 0.133 0.908 0.355 1.351 0.668 0.831 0.586 1.625 1.488 2.298 2.609 0.465 0.775 0.867 1.638 1.203 2.578h-4.852zM10.351 7.422c0.673-1.121 1.467-2.023 2.298-2.609 0.443-0.313 0.895-0.535 1.351-0.668v5.854h-4.852c0.336-0.94 0.738-1.803 1.203-2.578zM14 12v4h-5.979c0.059-1.38 0.24-2.72 0.54-4h5.439zM2.997 22c-0.533-1.278-0.854-2.619-0.959-4h3.983c0.055 1.394 0.224 2.736 0.492 4h-3.516zM8.021 18h5.979v4h-5.439c-0.3-1.28-0.481-2.62-0.54-4zM14 24v5.854c-0.456-0.133-0.908-0.355-1.351-0.668-0.831-0.586-1.625-1.488-2.298-2.609-0.465-0.775-0.867-1.638-1.203-2.578h4.852zM19.649 26.578c-0.673 1.121-1.467 2.023-2.298 2.609-0.443 0.312-0.895 0.535-1.351 0.668v-5.854h4.852c-0.336 0.94-0.738 1.802-1.203 2.578zM16 22v-4h5.979c-0.059 1.38-0.24 2.72-0.54 4h-5.439zM23.98 16c-0.055-1.394-0.224-2.736-0.492-4h3.516c0.533 1.278 0.855 2.619 0.959 4h-3.983zM25.958 10h-2.997c-0.582-1.836-1.387-3.447-2.354-4.732 1.329 0.636 2.533 1.488 3.585 2.54 0.671 0.671 1.261 1.404 1.766 2.192zM5.808 7.808c1.052-1.052 2.256-1.904 3.585-2.54-0.967 1.285-1.771 2.896-2.354 4.732h-2.997c0.504-0.788 1.094-1.521 1.766-2.192zM4.042 24h2.997c0.583 1.836 1.387 3.447 2.354 4.732-1.329-0.636-2.533-1.488-3.585-2.54-0.671-0.671-1.261-1.404-1.766-2.192zM24.192 26.192c-1.052 1.052-2.256 1.904-3.585 2.54 0.967-1.285 1.771-2.896 2.354-4.732h2.997c-0.504 0.788-1.094 1.521-1.766 2.192z"></path>
</symbol>
<symbol id="icon-spell-check" viewBox="0 0 32 32">
<path d="M4 8h4v6h2v-12c0-1.1-0.9-2-2-2h-4c-1.1 0-2 0.9-2 2v12h2v-6zM4 2h4v4h-4v-4zM30 2v-2h-6c-1.1 0-2 0.9-2 2v10c0 1.1 0.9 2 2 2h6v-2h-6v-10h6zM20 5v-3c0-1.1-0.9-2-2-2h-6v14h6c1.1 0 2-0.9 2-2v-3c0-1.1-0.275-2-1.375-2 1.1 0 1.375-0.9 1.375-2zM18 12h-4v-4h4v4zM18 6h-4v-4h4v4zM26 18l-13 14-7-9 2.563-2.188 4.438 4.625 11-9.438z"></path>
</symbol>
</defs>
</svg>
